<?xml version="1.0" standalone="no"?>
<!DOCTYPE svg PUBLIC "-//W3C//DTD SVG 20010904//EN"
 "http://www.w3.org/TR/2001/REC-SVG-20010904/DTD/svg10.dtd">
<svg version="1.0" xmlns="http://www.w3.org/2000/svg"
 width="2097.000000pt" height="2097.000000pt" viewBox="0 0 2097.000000 2097.000000"
 preserveAspectRatio="xMidYMid meet">
<metadata>
Created by potrace 1.14, written by Peter Selinger 2001-2017
</metadata>
<g transform="translate(0.000000,2097.000000) scale(0.100000,-0.100000)"
fill="#000000" stroke="none">
<path d="M10605 20749 c-16 -5 -45 -12 -63 -15 -112 -19 -212 -82 -282 -179
-37 -50 -49 -80 -73 -173 l-28 -113 21 -92 c12 -51 24 -101 26 -112 2 -11 13
-49 24 -85 53 -167 272 -844 323 -1000 22 -69 42 -129 43 -135 1 -5 23 -75 49
-155 25 -80 48 -150 50 -156 2 -7 -13 -25 -33 -40 -19 -16 -45 -37 -56 -46
-119 -101 -192 -156 -197 -150 -4 4 -14 39 -24 79 -12 53 -29 88 -63 135 -26
35 -52 66 -59 71 -7 4 -18 13 -25 20 -44 41 -103 68 -203 92 l-110 26 -111
-26 c-98 -23 -118 -31 -182 -78 -58 -42 -87 -74 -152 -167 -44 -63 -84 -120
-88 -125 -5 -6 -11 -15 -13 -21 -2 -5 -91 -139 -198 -298 -172 -257 -203 -311
-216 -375 -2 -9 -10 -47 -19 -84 -12 -51 -16 -121 -16 -274 0 -201 -1 -206
-22 -225 -152 -131 -440 -412 -543 -528 -95 -107 -305 -396 -344 -472 -17 -33
-21 -31 -27 11 -22 138 -85 245 -188 321 -50 36 -80 49 -171 72 -96 25 -116
27 -160 18 -27 -6 -59 -12 -70 -14 -146 -29 -222 -85 -385 -286 -19 -24 -42
-50 -51 -59 -8 -9 -33 -38 -55 -66 -21 -27 -46 -56 -54 -65 -8 -9 -30 -34 -48
-57 -18 -23 -44 -54 -58 -70 -14 -15 -35 -41 -47 -56 -12 -15 -33 -40 -47 -55
-14 -15 -40 -46 -58 -69 -19 -23 -41 -51 -50 -61 -10 -11 -33 -39 -52 -62 -19
-23 -42 -51 -52 -62 -9 -10 -31 -37 -50 -60 -18 -23 -38 -46 -44 -52 -5 -6
-32 -38 -58 -71 -27 -33 -52 -62 -55 -65 -4 -3 -25 -27 -46 -55 -22 -27 -47
-56 -55 -65 -8 -9 -24 -28 -35 -41 -11 -13 -40 -49 -65 -79 -25 -30 -49 -60
-55 -66 -5 -6 -28 -32 -50 -59 -22 -26 -45 -53 -50 -59 -6 -6 -28 -33 -50 -61
-22 -27 -47 -57 -55 -65 -12 -12 -41 -47 -113 -135 -45 -55 -107 -154 -107
-170 -1 -11 -11 -58 -23 -105 l-22 -84 28 -115 c24 -98 36 -126 75 -181 43
-60 75 -93 233 -235 31 -27 96 -86 145 -131 49 -44 138 -125 199 -180 60 -54
119 -108 131 -119 11 -11 54 -49 94 -85 63 -56 337 -327 627 -622 l83 -83 -28
-30 c-15 -17 -47 -55 -72 -85 -25 -30 -47 -57 -50 -60 -7 -6 -208 -245 -230
-274 -8 -10 -24 -29 -35 -41 -11 -13 -29 -34 -40 -47 -11 -13 -42 -51 -70 -83
-116 -139 -112 -136 -174 -131 -31 3 -96 8 -146 11 -49 4 -113 8 -142 11 -28
2 -82 -3 -120 -12 -37 -9 -75 -17 -84 -19 -59 -12 -95 -29 -153 -70 -97 -69
-158 -161 -181 -275 -2 -8 -9 -35 -15 -60 -6 -25 -11 -56 -11 -69 1 -25 52
-243 76 -326 8 -27 42 -149 75 -270 98 -361 130 -477 146 -530 8 -27 32 -117
55 -200 22 -82 61 -222 85 -310 25 -88 47 -167 49 -175 3 -13 169 -620 231
-845 35 -126 42 -153 133 -485 81 -296 87 -318 116 -420 9 -30 19 -66 21 -80
5 -23 40 -88 54 -100 3 -3 17 -21 30 -40 26 -38 31 -43 171 -170 107 -97 188
-172 235 -215 17 -16 51 -48 76 -70 70 -64 227 -207 268 -245 39 -37 190 -175
274 -251 27 -24 63 -57 81 -74 52 -49 236 -219 259 -238 11 -10 59 -54 106
-97 47 -43 101 -93 120 -110 19 -18 27 -30 18 -27 -9 3 -50 13 -90 21 -241 49
-364 61 -618 59 -171 -2 -269 -6 -360 -18 -25 -3 -65 -8 -90 -11 -48 -6 -271
-39 -330 -49 -107 -18 -433 -83 -830 -165 -162 -33 -308 -63 -325 -66 -16 -2
-37 -7 -45 -9 -8 -2 -33 -6 -55 -10 -22 -3 -101 -17 -175 -30 -115 -21 -320
-54 -438 -70 -17 -3 -49 -7 -70 -10 -20 -3 -57 -8 -82 -11 -129 -14 -212 -27
-275 -45 -38 -10 -70 -19 -70 -18 0 0 -17 -2 -38 -6 -20 -4 -37 -10 -37 -14 0
-4 -26 -24 -58 -45 -57 -38 -97 -89 -197 -251 -56 -90 -215 -240 -316 -298
-135 -78 -181 -115 -230 -186 -44 -63 -58 -92 -65 -136 -2 -11 -8 -40 -14 -65
-6 -25 -13 -58 -16 -75 -8 -42 42 -244 66 -270 l20 -21 -39 -55 c-34 -48 -50
-87 -67 -161 -2 -10 -7 -28 -10 -40 -16 -65 -14 -109 10 -205 31 -128 83 -208
184 -281 82 -59 103 -68 272 -125 351 -119 710 -206 1220 -297 30 -5 91 -15
135 -21 44 -6 91 -12 105 -14 33 -5 175 -23 273 -35 42 -5 92 -11 110 -14 17
-3 57 -8 87 -11 80 -8 205 -23 367 -45 148 -20 174 -24 263 -41 30 -5 73 -12
95 -15 22 -4 92 -19 155 -36 63 -16 122 -31 130 -33 66 -16 292 -102 415 -158
215 -98 495 -267 595 -359 8 -8 39 -34 69 -59 75 -61 167 -147 277 -257 89
-91 92 -95 82 -125 -5 -18 -12 -45 -15 -61 -2 -16 -8 -39 -13 -50 -5 -14 2
-63 19 -137 23 -104 31 -122 77 -185 76 -105 140 -145 420 -259 131 -54 293
-120 359 -147 66 -27 154 -63 195 -80 41 -16 84 -34 95 -39 11 -5 110 -45 220
-89 110 -45 214 -87 230 -95 17 -7 113 -47 215 -88 170 -69 232 -91 285 -100
11 -2 46 -9 77 -17 49 -11 65 -11 120 3 35 9 79 18 98 22 19 3 46 10 60 15 52
20 1004 408 1552 633 183 75 249 110 296 154 7 7 19 16 26 20 6 5 28 30 47 58
18 27 39 55 45 61 11 13 58 207 58 239 -1 11 -9 56 -19 100 l-18 79 155 151
c85 82 174 166 198 185 24 19 70 57 103 83 57 48 207 151 271 186 17 10 54 30
81 46 128 72 337 167 475 215 36 12 72 25 80 28 8 3 20 6 25 8 226 67 279 80
470 109 55 9 111 18 125 20 21 3 222 29 395 51 111 13 132 16 157 20 15 2 49
6 75 9 43 4 160 19 238 30 17 2 53 7 80 10 28 3 75 10 105 15 30 5 75 12 100
15 239 33 793 159 1060 240 47 14 105 32 130 40 48 14 136 46 185 66 17 7 33
12 37 11 11 -3 172 108 181 124 4 7 13 19 20 26 43 46 72 108 97 208 l28 110
-26 112 c-20 92 -32 123 -65 169 l-39 57 20 28 c11 16 32 78 47 138 l26 109
-27 111 c-22 94 -33 121 -74 179 -29 41 -71 84 -106 109 -33 23 -61 44 -64 47
-3 3 -30 19 -60 35 -123 65 -279 219 -355 351 -51 89 -103 152 -162 197 -79
61 -72 57 -191 84 -127 29 -130 30 -256 44 -54 7 -106 13 -115 15 -9 1 -41 6
-71 10 -30 4 -64 9 -75 11 -11 2 -40 6 -64 9 -25 3 -54 7 -65 10 -12 2 -37 7
-56 10 -19 2 -46 7 -60 9 -14 3 -65 12 -115 20 -49 9 -103 18 -120 22 -16 3
-39 7 -50 9 -11 2 -56 10 -100 19 -44 8 -91 17 -105 20 -31 6 -165 33 -420 86
-107 22 -204 42 -215 44 -257 51 -421 82 -485 91 -25 4 -54 9 -65 11 -11 2
-74 11 -140 19 -66 9 -134 18 -150 20 -133 19 -465 25 -633 12 -93 -7 -299
-40 -359 -56 -49 -14 -53 -20 82 104 48 44 102 94 120 110 18 17 72 66 121
110 48 44 99 91 114 105 15 14 69 63 120 110 51 47 107 99 125 115 18 17 72
66 120 110 48 44 102 94 120 110 18 17 72 66 120 110 48 44 100 91 115 105 66
60 216 197 239 219 14 12 68 62 120 110 51 47 106 97 121 111 15 14 69 63 120
110 153 139 212 193 251 230 20 19 72 67 115 105 43 39 92 84 109 100 18 17
71 66 120 110 49 44 103 94 120 110 18 17 72 66 121 110 48 44 104 96 124 115
20 19 74 69 120 110 79 71 163 148 235 215 17 17 74 68 125 115 52 47 106 96
120 110 23 22 146 134 229 208 338 306 361 335 403 511 15 63 25 117 23 121
-2 4 -14 47 -25 96 -11 49 -22 96 -24 104 -3 8 -32 80 -66 160 -34 80 -122
289 -197 465 -74 176 -143 338 -153 360 -10 22 -55 128 -100 235 -45 107 -89
211 -97 230 -23 53 -37 86 -83 195 -23 55 -65 143 -93 195 -28 52 -65 122 -82
155 -18 33 -41 76 -52 95 -11 19 -55 100 -98 180 -43 80 -89 165 -103 190 -13
25 -40 73 -58 108 -19 34 -51 92 -71 130 -20 37 -48 90 -63 117 -14 28 -54
100 -87 160 -33 61 -76 139 -95 175 -176 324 -362 667 -390 720 -20 36 -44 81
-55 100 -11 19 -44 80 -73 135 -29 55 -56 105 -60 110 -4 6 -30 53 -57 105
-231 434 -280 509 -376 579 -57 42 -82 52 -177 76 l-111 27 -95 -21 c-116 -26
-144 -38 -211 -88 -61 -46 -153 -167 -153 -200 0 -20 -14 -13 -127 61 -117 76
-361 226 -368 226 -1 0 -47 25 -101 56 -119 68 -535 280 -689 352 -141 65
-236 108 -405 182 -52 23 -113 50 -135 59 -22 10 -104 45 -182 77 l-143 59 6
30 c4 17 10 35 14 40 5 6 8 12 8 15 2 45 220 480 242 480 3 0 16 -45 28 -99
20 -84 31 -110 70 -164 26 -36 63 -75 82 -88 19 -13 41 -30 48 -37 26 -24 57
-35 162 -59 l105 -24 111 26 c100 23 118 31 187 81 43 30 77 59 77 63 0 4 8
16 18 27 35 40 59 81 100 167 23 49 42 91 42 93 0 3 15 37 34 77 39 83 50 109
141 312 37 83 82 183 101 223 19 40 34 74 34 76 0 2 17 39 37 82 20 43 38 81
38 84 2 5 12 29 55 125 10 22 21 58 25 80 5 22 9 42 10 45 25 90 27 122 15
182 -24 120 -39 169 -61 201 -39 56 -193 261 -206 275 -7 7 -13 16 -13 20 0 4
-14 23 -30 42 -17 19 -43 53 -58 75 -15 22 -29 42 -33 45 -3 3 -52 68 -109
145 -57 77 -108 145 -112 150 -28 34 -214 286 -270 365 -37 52 -76 109 -88
125 -12 17 -59 84 -105 150 -179 256 -273 390 -337 480 -38 51 -68 98 -68 103
0 6 -3 12 -7 14 -9 3 -106 138 -173 238 -24 36 -46 67 -50 70 -4 3 -26 33 -49
68 -149 221 -274 387 -313 415 -24 17 -45 34 -48 38 -13 16 -63 34 -158 55
-114 26 -123 27 -167 13z m2195 -9598 c25 -30 50 -59 55 -65 6 -6 34 -40 63
-76 29 -36 61 -74 70 -85 90 -109 292 -394 292 -412 0 -6 -453 -304 -528 -348
-10 -5 -32 -20 -49 -32 -37 -28 -46 -29 -39 -5 3 9 6 275 7 591 l3 574 40 -45
c23 -24 61 -68 86 -97z m-2400 -2504 c0 -3 -74 -52 -107 -71 -7 -3 -17 5 -25
21 -23 44 -137 260 -169 320 -16 29 -29 55 -29 57 0 1 74 -71 165 -160 91 -90
165 -165 165 -167z m-20 -4538 c41 -10 87 -19 102 -19 26 0 141 24 173 36 11
5 4 -14 -22 -57 -47 -77 -106 -199 -153 -317 l-13 -33 -44 103 c-48 113 -85
190 -94 198 -4 3 -16 24 -28 47 -11 23 -25 44 -31 48 -19 12 -10 26 12 19 13
-4 57 -15 98 -25z"/>
</g>
</svg>
